<?xml version="1.0" encoding="UTF-8" standalone="no"?>
<!-- Created with Inkscape (http://www.inkscape.org/) -->

<svg
   version="1.1"
   id="svg1"
   width="1903.1919"
   height="1754.2465"
   viewBox="0 0 1903.1919 1754.2465"
   xmlns="http://www.w3.org/2000/svg"
   xmlns:svg="http://www.w3.org/2000/svg">
  <defs
     id="defs1" />
  <g
     id="g1"
     transform="translate(-3160.9536,-355.81417)">
    <rect
       style="fill:#ffffff;stroke-width:1.09606"
       id="rect1"
       width="1903.1919"
       height="1754.2465"
       x="3160.9536"
       y="355.81418" />
    <path
       style="fill:#04203e;stroke:none;stroke-width:2.42489"
       d="m 3379.3653,833.65893 v 715.34157 174.5918 c 0,38.5008 -3.3157,75.46 19.1858,109.1182 48.1902,72.0829 133.7878,61.5771 208.7535,58.2942 33.0108,-1.4449 66.3762,-0.094 99.4203,-0.094 h 790.5131 145.4932 c 55.8333,0 106.7389,1.5267 147.4971,-43.6573 30.0882,-33.3561 29.5196,-74.2899 29.5196,-116.3859 V 1573.2497 1068.8734 913.68063 c 0,-21.266 -4.9785,-49.6605 0.7709,-70.1459 4.5806,-16.3212 44.3643,-9.8132 57.4264,-9.8772 34.7242,-0.1699 67.7118,-19.9635 87.0677,-48.4959 17.3925,-25.6386 17.2024,-55.0279 17.2024,-84.871 0,-52.088 1.1458,-97.6328 -43.6479,-132.6673 -38.8481,-30.3842 -87.1059,-24.9504 -133.3688,-24.9504 H 4540.886 c -351.1833,0 -704.1882,8.6245 -1054.8257,0.035 -69.7116,-1.7076 -179.5495,-19.0003 -235.1785,31.909 -34.6243,31.6867 -33.9839,70.3819 -33.9839,113.5488 0,46.2315 -0.8694,88.8666 38.8936,120.6719 37.2026,29.7572 78.7926,24.8213 123.5738,24.8213 m -29.1342,-161.5736 c 39.5961,-7.5426 83.7844,1.5306 123.7048,1.5306 84.88,0 169.6375,-2.4248 254.6131,-2.4248 h 795.3627 c 66.3896,0 132.5278,3.1998 198.8408,2.4154 40.7097,-0.4816 82.957,-6.6332 123.6692,-1.9924 29.4509,3.357 37.1548,40.8486 19.8836,61.8944 -21.0803,25.6877 -70.5014,12.854 -99.9049,12.854 H 4492.3883 3718.8495 3471.511 c -34.4971,0 -75.4829,7.3061 -109.1199,1.6352 -35.427,-5.9725 -56.7914,-67.4105 -12.16,-75.9124 m 1348.2724,362.83877 h -882.6586 -230.3642 l -58.1973,0.036 -22.7857,-0.1984 -3.8881,-48.33467 v -143.0686 h 620.771 c 99.3844,0 201.8432,-9.8191 300.6859,-0.4117 25.2171,2.4 50.1062,-1.8906 75.1715,-2.0114 42.145,-0.2035 83.9152,2.6247 126.0941,2.4213 17.023,-0.082 56.9965,-11.2464 71.2834,0.069 9.103,7.2096 3.888,37.8078 3.888,48.4307 v 143.06827 m -1197.8939,87.2959 c 167.4784,0 334.6762,-2.4249 501.9515,-2.4249 107.5637,0 215.1117,2.4249 322.51,2.4249 91.1062,0 183.1404,3.8842 274.0121,-0.095 23.5081,-1.0296 46.6876,-2.3296 70.3218,-2.3296 7.2269,0 21.467,-2.6013 26.6066,3.888 6.2355,7.8734 2.4919,27.8076 2.4919,37.3352 v 99.4203 101.8452 c 0,8.4285 3.5843,27.9629 -3.888,33.8811 -11.7056,9.2708 -49.3765,2.4922 -64.0087,2.4922 h -177.0167 -686.2429 -196.4159 c -14.7001,0 -57.1575,7.3206 -68.4263,-2.4922 -9.0524,-7.8824 -1.8954,-55.3849 -1.8954,-67.8294 v -206.1156 m 426.7801,71.551 c -66.1193,9.387 -56.7349,97.0295 -4.8498,118.8887 29.2521,12.324 68.2185,5.9761 99.4204,5.9761 h 164.8923 c 28.7215,0 56.7461,6.1173 84.871,-3.3044 53.9638,-18.0775 70.4749,-106.6768 4.8498,-121.5044 -26.7366,-6.0409 -32.5641,14.3747 -51.4298,25.3212 -9.3677,5.4356 -25.4115,2.4921 -35.8661,2.4921 -67.8562,0 -138.5435,5.7698 -206.1135,-0.1421 -22.8037,-1.995 -28.3282,-31.6235 -55.7743,-27.7272 m 771.1138,289.7571 v 203.6905 c 0,18.7046 7.4964,58.0811 -7.8284,71.6952 -13.8747,12.3257 -47.5072,5.9012 -64.9181,5.9012 h -172.1669 -686.2429 -191.5661 c -17.2903,0 -56.1628,7.206 -69.2701,-5.9012 -13.3853,-13.3854 -5.9014,-53.9936 -5.9014,-71.6952 v -203.6908 h 1197.8939 m -780.8134,76.4628 c -63.1795,15.0463 -40.9531,101.2824 7.2746,118.8809 27.8558,10.1645 60.5721,5.9219 89.7209,5.9219 h 162.4673 c 29.889,0 68.7771,6.4885 96.9956,-4.7991 46.5555,-18.6226 70.9747,-104.5444 7.2746,-120.0021 -33.09,-8.0298 -39.3966,25.365 -65.4814,27.6636 -69.934,6.1616 -143.1459,0.1431 -213.3806,0.1431 -8.8472,0 -20.6498,1.9457 -28.6869,-2.4924 -20.6405,-11.3969 -28.3283,-31.9492 -56.1841,-25.315 z"
       id="path1" />
  </g>
</svg>
